<?xml version="1.0" encoding="UTF-8"?>
<svg id="Layer_1" data-name="Layer 1" xmlns="http://www.w3.org/2000/svg" viewBox="0 0 100 100">
  <path d="M92.83,45.12h-2.72c-.45-2.26-2.34-3.6-4.57-4.11,1.54-7.19,3-14.41,4.48-21.61,.16-.78-.22-1.64-1.05-1.85-6.5-1.62-13.02-3.17-19.53-4.77-.02,0-.03,0-.04,0-1.57-1.81-3.69-3.22-5.86-3.82-2.12-.59-5.49-.49-6.96,.03-.84,.3-1.22,1.3-.69,1.94s11.64,14.53,12.13,15.13c.78,.97,2.15,.27,2.51-.66,.82-2.15,1.56-4.5,1.37-6.83-.06-.77-.23-1.51-.47-2.22,5.13,1.25,10.25,2.49,15.37,3.76-1.42,6.9-2.82,13.81-4.3,20.7-1.56,.14-3.05,.63-4.14,1.48-.93,.72-1.54,1.7-1.77,2.82h-11.29v-.76c1.04-.06,2.11-.3,2.97-.88,.88-.59,1.61-1.47,1.84-2.53,.22-1.03,.07-2.08-.46-3-.57-1-1.5-1.66-2.55-2.08-.95-.38-2.14-.4-3.31-.39-2.66,.04-4.85,0-7.27,0-.81,0-1.5,.69-1.5,1.5v8.12c-1.21,0-2.49,0-3.84,0v-3.69c0-.81-.69-1.5-1.5-1.5h-1.96v-11.44c0-2.31-.21-4.47-1.95-6.22-1.62-1.63-3.68-1.95-5.86-1.95h-13.83c-1.65,0-3.35-.14-4.91,.5-2.72,1.12-4.13,3.7-4.14,6.56-.02,4.18,0,8.37,0,12.55h-1.96c-.81,0-1.5,.69-1.5,1.5v3.65c-3.3,.01-5.6,.03-6.29,.06-.05,0-.1,0-.15,0-.81,0-1.5,.69-1.5,1.5v43.34c0,1.93,3,1.93,3,0v-29.4H59.21v29.4c0,.81,.69,1.5,1.5,1.5h32.12c.81,0,1.5-.69,1.5-1.5V46.62c0-.81-.69-1.5-1.5-1.5ZM60.05,11.37c2.61,0,5.28,1.26,6.93,3.16,1.06,1.22,1.88,2.72,1.95,4.36,.04,1.03-.13,2.05-.39,3.04-2.83-3.52-5.66-7.04-8.49-10.56Zm23.18,32.41c1.81,0,3.11,.57,3.68,1.34h-7.13c.65-.9,1.87-1.34,3.45-1.34Zm-15.99-3.85c0,.65-.41,1.44-1.91,1.44v-2.88c1.33,0,1.91,.52,1.91,1.44ZM20.81,24.71c1.13-1.47,2.76-1.42,4.4-1.42,4.37,0,15.66-.18,16.8,.12,2.25,.58,2.73,2.59,2.73,4.6v11.9H20.06v-10.63c0-1.52-.24-3.27,.75-4.56Zm-3.39,18.19h29.97c.45,0,.82,.37,.82,.82v1.36c-10.3-.02-23.06-.05-31.61-.04v-1.32c0-.45,.37-.82,.82-.82Zm41.78,14.65H8.67v-8.22c0-.67,.54-1.22,1.22-1.22H59.21v9.43Zm-1.16-12.44v-5.58c0-.58,.47-1.05,1.05-1.05h3.22v6.64c-1.14,0-2.59,0-4.27,0Zm32.07,43.35h-26.69c-.67,0-1.22-.54-1.22-1.22v-14.91h29.12v14.91c0,.67-.54,1.22-1.22,1.22Zm1.22-19.12h-29.12v-8.78h29.12v8.78Zm0-11.78h-29.12v-9.43c5.82,0,23.15,.04,27.92,.06,.67,0,1.21,.55,1.21,1.22v8.16Z"/>
  <path d="M72.83,54.36h8.16c.78,0,1.54-.69,1.5-1.5-.04-.81-.66-1.5-1.5-1.5h-8.16c-.78,0-1.54,.69-1.5,1.5,.04,.81,.66,1.5,1.5,1.5Z"/>
  <path d="M72.83,66.44h8.16c.78,0,1.54-.69,1.5-1.5-.04-.81-.66-1.5-1.5-1.5h-8.16c-.78,0-1.54,.69-1.5,1.5,.04,.81,.66,1.5,1.5,1.5Z"/>
  <path d="M72.83,78.45h8.16c.78,0,1.54-.69,1.5-1.5-.04-.81-.66-1.5-1.5-1.5h-8.16c-.78,0-1.54,.69-1.5,1.5,.04,.81,.66,1.5,1.5,1.5Z"/>
</svg>