<?xml version="1.0" encoding="UTF-8"?>
<svg id="Layer_1" data-name="Layer 1" xmlns="http://www.w3.org/2000/svg" viewBox="0 0 100 100">
  <path d="M93.01,37.56c-1.39-1.15-2.98-.84-8.33-1.04,0-1.33,.29-7.89-.18-9.64-.65-2.37-2.83-3.74-5.2-3.77-1.01-.01-35.37,0-37.84,0-.69-1.37-1.39-2.74-2.08-4.1-1.09-2.14-2.31-3.92-5-4.03-3.08-.12-17.83,0-22.11,0-1.3,0-2.6-.08-3.82,.49-1.9,.9-2.93,2.76-2.96,4.82-.08,5.64-.04,56.5,0,63.23,0,.89,.64,1.37,1.33,1.44,4.29,.06,68.65,.06,71.59,.06,.7,0,1.23-.47,1.45-1.1,3.85-10.99,13.2-37.68,14.03-40.03,.78-2.22,1.23-4.57-.89-6.34ZM10.77,17.98c3.24-.12,17.99,0,22.11,0,1.23,0,2.43-.19,3.16,1.06,.89,1.53,2.94,5.8,3.21,6.33,.23,.46,.79,.74,1.3,.74,6.63,0,34.32,.06,38.34,.07,3.46,0,2.85,2.97,2.8,5.62-.03,1.57,0,3.15,0,4.72-14.06,0-49.99-.04-53.9,0-3.5,.03-6.31,2.08-7.51,5.35-.55,1.5-8.38,23.92-11.78,33.61V21.92c0-1.74-.16-3.85,2.27-3.94Zm80.63,23.97c-.58,1.71-9.96,28.42-14.04,40.08H9.38c3.5-9.99,12.23-34.91,13.1-37.37,.58-1.66,1-3.36,2.59-4.39,1.34-.87,2.82-.74,4.32-.74h60.24c1.48,0,2.28,.94,1.78,2.43Z"/>
</svg>