<?xml version="1.0" encoding="UTF-8"?>
<svg id="Layer_1" data-name="Layer 1" xmlns="http://www.w3.org/2000/svg" viewBox="0 0 100 100">
  <path d="M92.03,34.02h-20.94l.88-8.85c.09-.86-.76-1.43-1.5-1.5l-5.44-.54c.57-2.07,1.15-4.13,1.72-6.2,4.6,.46,6.8-3.96,6.07-6.72-.67-2.54-2.73-4.41-5.27-4.58-.1-.02-.2-.03-.31-.03-2.43,.03-4.43,1.44-5.31,3.68-.8,2.04-.44,4.96,1.99,6.64-.64,2.3-1.28,4.6-1.92,6.91-3.59-.36-45.99-4.58-48.34-4.81-.86-.09-1.33,.47-1.42,1.13-.04,.12-3.87,38.45-5.77,57.48-.09,.86,.76,1.43,1.5,1.5,6.41,.64,24.48,2.44,27.1,2.7v12.09c0,.81,.69,1.5,1.5,1.5h55.46c.81,0,1.5-.69,1.5-1.5V35.52c0-.81-.69-1.5-1.5-1.5Zm-24.8-25.44c1.58,0,2.8,1.39,2.71,2.74-.11,1.62-1.25,2.69-2.71,2.69s-2.73-1.19-2.73-2.69c0-1.37,1.05-2.74,2.73-2.74ZM9.6,75.28c1.8-18.05,3.59-36.09,5.39-54.14,5.97,.59,36.76,3.66,46.19,4.6-1.16,4.16-2.31,8.32-3.47,12.49-.52,1.86,2.38,2.66,2.89,.8,1.2-4.33,2.4-8.65,3.61-12.98,1.54,.15,3.08,.31,4.62,.46-1.8,18.05-3.59,36.09-5.39,54.14-5.97-.59-52.04-5.18-53.84-5.36Zm55.18,8.49c.86,.09,1.43-.76,1.5-1.5,1.5-15.09,3-30.17,4.5-45.26h19.74v54.39H38.07v-10.29c6.55,.65,24.36,2.42,26.71,2.66Z"/>
</svg>