<?xml version="1.0" encoding="UTF-8"?>
<svg id="Layer_1" data-name="Layer 1" xmlns="http://www.w3.org/2000/svg" viewBox="0 0 100 100">
  <path d="M90.66,92.58c-.94-4.82-7.92-40.69-8.24-42.36V7.17c0-.81-.69-1.5-1.5-1.5H19.08c-.81,0-1.5,.69-1.5,1.5V50.22c-.92,4.72-7.9,40.6-8.24,42.36-.18,.94,.41,1.9,1.45,1.9H89.22c1.03,0,1.63-.95,1.45-1.9ZM79.42,9.97V48.84H20.58V9.97c0-.71,.58-1.29,1.29-1.29h56.26c.71,0,1.29,.58,1.29,1.29ZM12.82,90.36c1.4-7.2,7.24-37.21,7.49-38.52h59.38c.78,4.04,6.31,32.44,7.49,38.52,.11,.58-.33,1.12-.92,1.12H13.74c-.59,0-1.04-.54-.92-1.12Z"/>
  <path d="M24.46,46.86h51.08c1.01,0,1.5-.52,1.5-1.5V14.48c0-.81-.69-1.5-1.5-1.5H24.46c-.81,0-1.5,.69-1.5,1.5v30.88c0,.81,.69,1.5,1.5,1.5Zm49.58-29.59v25.3c0,.71-.58,1.29-1.29,1.29H27.25c-.71,0-1.29-.58-1.29-1.29V17.27c0-.71,.58-1.29,1.29-1.29h45.5c.71,0,1.29,.58,1.29,1.29Z"/>
  <path d="M50,12.34c1.93,0,1.93-3,0-3s-1.93,3,0,3Z"/>
  <path d="M74.97,58.87c-.13-.68-.48-1.1-1.45-1.1H25.43c-.62,0-1.32,.46-1.45,1.1-1.47,7.57-4.84,24.87-5.05,25.94-.18,.94,.41,1.9,1.45,1.9h58.18c1.03,0,1.63-.95,1.45-1.9-1.47-7.57-4.84-24.87-5.05-25.94Zm-31.21,19.78h12.48c.33,1.69,.66,3.37,.98,5.06h-14.45c.33-1.69,.66-3.37,.98-5.06Zm16.51,5.06c-.42-2.31-.72-4.09-.96-5.66-.17-1.12-.46-2.34-1.5-2.37-2.1-.05-10.58-.04-15.29-.04-.62,0-1.32,.46-1.45,1.1l-1.35,6.96H23.33c-.59,0-1.03-.53-.92-1.11,1.16-5.98,3.17-16.29,3.94-20.24,.18-.92,.99-1.59,1.93-1.59h42.38c.94,0,1.75,.67,1.93,1.59,1.25,6.42,3.27,16.83,3.94,20.24,.11,.58-.33,1.11-.92,1.11h-15.34Z"/>
</svg>